IKResults
version=1
nRows=8
nColumns=63
inDegrees=yes

Units are S.I. units (second, meters, Newtons, ...)
If the header above contains a line with 'inDegrees', this indicates whether rotational values are in degrees (yes) or radians (no).

endheader
time	pelvis_tilt	pelvis_list	pelvis_rotation	pelvis_tx	pelvis_ty	pelvis_tz	hip_flexion_r	hip_adduction_r	hip_rotation_r	knee_angle_r	knee_angle_r_beta	ankle_angle_r	subtalar_angle_r	mtp_angle_r	hip_flexion_l	hip_adduction_l	hip_rotation_l	knee_angle_l	knee_angle_l_beta	ankle_angle_l	subtalar_angle_l	mtp_angle_l	L5_S1_Flex_Ext	L5_S1_Lat_Bending	L5_S1_axial_rotation	L4_L5_Flex_Ext	L4_L5_Lat_Bending	L4_L5_axial_rotation	L3_L4_Flex_Ext	L3_L4_Lat_Bending	L3_L4_axial_rotation	L2_L3_Flex_Ext	L2_L3_Lat_Bending	L2_L3_axial_rotation	L1_L2_Flex_Ext	L1_L2_Lat_Bending	L1_L2_axial_rotation	L1_T12_Flex_Ext	L1_T12_Lat_Bending	L1_T12_axial_rotation	Abs_r3	Abs_r2	Abs_r1	Abs_t1	Abs_t2	neck_flexion	neck_bending	neck_rotation	arm_flex_r	arm_add_r	arm_rot_r	elbow_flex_r	pro_sup_r	wrist_flex_r	wrist_dev_r	arm_flex_l	arm_add_l	arm_rot_l	elbow_flex_l	pro_sup_l	wrist_flex_l	wrist_dev_l
      6.03333333	    -28.27359744	    -11.41265213	      2.15019365	     -1.53321580	      0.91126681	     -0.22495353	     36.24253920	      0.45532969	    -10.70729679	     14.34825258	      0.25042425	      8.38901544	    -12.03369638	      0.00000000	     27.45233537	     -8.89389233	    -11.41933343	     15.52434222	      0.27095089	     18.97526494	    -13.78194723	      0.00000000	      4.29209362	      0.76557456	     -0.13435029	      7.97084707	      1.01821416	     -0.14274718	      7.05148061	      1.86141798	     -0.14274718	      4.90543380	      1.86141798	     -0.11755650	      3.98563814	      1.56115964	     -0.10915961	      2.45250230	      1.18587499	     -0.10076271	     30.65799554	      8.66033250	     -0.74721599	      0.00000000	      0.00000000	      5.46997574	     -0.62445813	     -7.70206612	    -14.67438194	    -12.56518697	     -5.40077834	     28.71807128	     89.99559364	      0.00000000	      0.00000000	    -14.37196086	    -10.44491015	     -5.56212734	     27.07160129	     89.99559364	      0.00000000	      0.00000000
      6.06666667	    -27.35149734	    -11.43354363	      3.99795805	     -1.54578994	      0.91157727	     -0.22541801	     34.72334965	     -0.77383692	    -11.75134951	     15.96497160	      0.27864132	      7.99574073	    -12.32832103	      0.00000000	     28.16564687	     -8.28641932	     -9.77655870	     16.36057530	      0.28554591	     18.80854675	    -13.98054246	      0.00000000	      4.17594907	      0.70428870	     -0.35968140	      7.75515502	      0.93670396	     -0.38216148	      6.86066673	      1.71240753	     -0.38216148	      4.77269220	      1.71240753	     -0.31472122	      3.87778631	      1.43618551	     -0.29224113	      2.38613730	      1.09094319	     -0.26976105	     29.82838663	      7.96705458	     -2.00044002	      0.00000000	      0.00000000	      5.97972484	     -0.98037860	     -7.39102079	    -15.15288439	    -12.24503494	     -6.34726688	     26.69771592	     89.99559364	      0.00000000	      0.00000000	    -12.02481330	    -10.82582195	     -4.84176831	     25.85294491	     89.99559364	      0.00000000	      0.00000000
      6.10000000	    -25.06998821	    -11.17986089	      6.04336399	     -1.56059497	      0.91279246	     -0.22527802	     31.61842978	     -2.02098686	    -13.74974040	     16.90157018	      0.29498805	      8.01160910	    -11.42751478	      0.00000000	     27.60196118	     -7.53342860	     -7.61569645	     17.33576670	      0.30256621	     18.31823051	    -15.24802294	      0.00000000	      3.76269673	      0.63742465	     -0.53483494	      6.98770410	      0.84777479	     -0.56826212	      6.18173446	      1.54983430	     -0.56826212	      4.30038609	      1.54983430	     -0.46798057	      3.49404019	      1.29983635	     -0.43455339	      2.15000491	      0.98737079	     -0.40112620	     26.87656648	      7.21067516	     -2.97459148	      0.00000000	      0.00000000	      7.33818299	     -1.54856201	     -7.20525718	    -14.99130134	    -11.38673847	     -9.96692220	     25.36331657	     89.99559364	      0.00000000	      0.00000000	     -8.41406320	    -11.90316916	      0.45095902	     23.83586269	     89.99559364	      0.00000000	      0.00000000
      6.13333333	    -22.83387886	    -10.61782637	      7.83124311	     -1.57727384	      0.91354084	     -0.22391441	     28.38298742	     -3.13401598	    -15.69759565	     17.05425087	      0.29765283	      7.74706413	    -10.74940968	      0.00000000	     26.94277356	     -6.80450266	     -6.54397811	     18.19826604	      0.31761966	     18.08746376	    -15.35465118	      0.00000000	      3.30705848	      0.55631812	     -0.70886202	      6.14153831	      0.73990311	     -0.75316590	      5.43316638	      1.35263189	     -0.75316590	      3.77963714	      1.35263189	     -0.62025427	      3.07093451	      1.13444392	     -0.57595039	      1.88965322	      0.86173678	     -0.53164652	     23.62198805	      6.29318189	     -3.94247791	      0.00000000	      0.00000000	      9.16119791	     -1.84754185	     -7.10931278	    -14.48114064	    -10.92817050	    -10.87177426	     24.75700747	     89.99559364	      0.00000000	      0.00000000	     -5.13865189	    -12.40201155	      1.91139708	     22.29707347	     89.99559364	      0.00000000	      0.00000000
      6.16666667	    -20.58265364	     -9.48194831	      8.78027256	     -1.59492906	      0.91424393	     -0.22069512	     25.17063591	     -4.31376662	    -17.69522880	     16.83565759	      0.29383766	      7.73734563	     -8.96081686	      0.00000000	     25.73292569	     -5.98650372	     -6.67175585	     18.56480279	      0.32401693	     17.73651254	    -15.17572525	      0.00000000	      2.80617866	      0.44453991	     -0.76876331	      5.21135440	      0.59123808	     -0.81681102	      4.61027093	      1.08085434	     -0.81681102	      3.20718159	      1.08085434	     -0.67266790	      2.60581751	      0.90650579	     -0.62462019	      1.60345049	      0.68859232	     -0.57657249	     20.04425358	      5.02872438	     -4.27563092	      0.00000000	      0.00000000	     11.18018462	     -1.85692641	     -6.93196189	    -13.78737080	    -10.26272371	    -11.74607675	     24.88510224	     89.99559364	      0.00000000	      0.00000000	     -2.10193891	    -13.32045937	      4.81100086	     21.13465048	     89.99559364	      0.00000000	      0.00000000
      6.20000000	    -19.26452016	     -8.12494329	      8.76054118	     -1.61177042	      0.91397034	     -0.21545873	     22.89901086	     -5.29706029	    -18.84535141	     16.06536235	      0.28039347	      7.44164374	     -7.35041779	      0.00000000	     24.87382192	     -5.22914687	     -7.84355572	     18.29029439	      0.31922586	     17.15900648	    -14.69483843	      0.00000000	      2.47399519	      0.31834220	     -0.75008897	      4.59445646	      0.42339513	     -0.79696953	      4.06452669	      0.77401723	     -0.79696953	      2.82752910	      0.77401723	     -0.65632785	      2.29735193	      0.64916342	     -0.60944729	      1.41364085	      0.49311207	     -0.56256673	     17.67150023	      3.60115064	     -4.17176982	      0.00000000	      0.00000000	     12.70907331	     -1.73971967	     -6.37301024	    -13.41042680	     -9.61975800	    -11.72154981	     25.47869521	     89.99559364	      0.00000000	      0.00000000	      0.22199316	    -15.32174063	     14.10981836	     20.65218474	     89.99559364	      0.00000000	      0.00000000
      6.23333333	    -19.41359233	     -7.11992888	      8.20344270	     -1.62688169	      0.91207667	     -0.20928240	     22.17800803	     -5.81340645	    -19.16668971	     14.83573730	      0.25893246	      6.33500149	     -6.77065678	      0.00000000	     25.38122695	     -4.71805937	     -8.84661413	     17.89955483	      0.31240617	     16.26982315	    -14.67304605	      0.00000000	      2.44123779	      0.22068784	     -0.76420986	      4.53362270	      0.29351482	     -0.81197298	      4.01070956	      0.53658040	     -0.81197298	      2.79009067	      0.53658040	     -0.66868363	      2.26693341	      0.45002663	     -0.62092051	      1.39492327	      0.34184546	     -0.57315740	     17.43751740	      2.49646493	     -4.25030600	      0.00000000	      0.00000000	     13.35212906	     -1.85362753	     -5.86373411	    -13.52525147	     -9.11567408	    -11.49440149	     26.09616560	     89.99559364	      0.00000000	      0.00000000	      0.43452325	    -16.04062768	     14.06884848	     21.00294342	     89.99559364	      0.00000000	      0.00000000
      6.26666667	    -18.63890195	     -5.41229661	      6.64739372	     -1.63937292	      0.91178959	     -0.20084588	     20.68677935	     -6.70945671	    -20.14937603	     13.76340246	      0.24021669	      6.90540869	     -2.36745163	      0.00000000	     23.74678992	     -4.21849688	    -12.72132198	     15.98783103	      0.27904029	     16.05079825	    -11.97494890	      0.00000000	      2.26358493	      0.07476054	     -0.66719680	      4.20370357	      0.09943152	     -0.70889660	      3.71884368	      0.18177278	     -0.70889660	      2.58705121	      0.18177278	     -0.58379720	      2.10196496	      0.15245169	     -0.54209740	      1.29341243	      0.11580408	     -0.50039760	     16.16856079	      0.84570618	     -3.71074843	      0.00000000	      0.00000000	     13.68438655	     -0.98682332	     -4.19463354	    -12.80494773	     -8.82175743	     -8.65924078	     25.81497204	     89.99559364	      0.00000000	      0.00000000	     -0.08430429	    -17.45893498	     15.47117782	     22.64817524	     89.99559364	      0.00000000	      0.00000000
